<mxfile host="app.diagrams.net" agent="Mozilla/5.0 (Windows NT 10.0; Win64; x64) AppleWebKit/537.36 (KHTML, like Gecko) Chrome/132.0.0.0 Safari/537.36" version="26.0.11">
  <diagram name="Página-1" id="3FB31W6lnzkkbIFUuxk8">
    <mxGraphModel dx="1434" dy="746" grid="1" gridSize="10" guides="1" tooltips="1" connect="1" arrows="1" fold="1" page="1" pageScale="1" pageWidth="827" pageHeight="1169" math="0" shadow="0">
      <root>
        <mxCell id="0" />
        <mxCell id="1" parent="0" />
        <mxCell id="vgUfGtnhfAbGP5xbuHzQ-3" value="" style="edgeStyle=orthogonalEdgeStyle;rounded=0;orthogonalLoop=1;jettySize=auto;html=1;entryX=0.5;entryY=0;entryDx=0;entryDy=0;" parent="1" source="vgUfGtnhfAbGP5xbuHzQ-1" edge="1" target="vgUfGtnhfAbGP5xbuHzQ-4">
          <mxGeometry relative="1" as="geometry">
            <mxPoint x="28" y="414" as="targetPoint" />
          </mxGeometry>
        </mxCell>
        <mxCell id="vgUfGtnhfAbGP5xbuHzQ-1" value="INÍCIO" style="rounded=1;whiteSpace=wrap;html=1;fillColor=#dae8fc;strokeColor=#6c8ebf;" parent="1" vertex="1">
          <mxGeometry x="49" y="319" width="120" height="60" as="geometry" />
        </mxCell>
        <mxCell id="vgUfGtnhfAbGP5xbuHzQ-6" value="" style="edgeStyle=orthogonalEdgeStyle;rounded=0;orthogonalLoop=1;jettySize=auto;html=1;" parent="1" source="vgUfGtnhfAbGP5xbuHzQ-4" target="vgUfGtnhfAbGP5xbuHzQ-5" edge="1">
          <mxGeometry relative="1" as="geometry" />
        </mxCell>
        <mxCell id="vgUfGtnhfAbGP5xbuHzQ-4" value="n1, n2, n3" style="shape=parallelogram;perimeter=parallelogramPerimeter;whiteSpace=wrap;html=1;fixedSize=1;fillColor=#dae8fc;strokeColor=#6c8ebf;" parent="1" vertex="1">
          <mxGeometry x="49" y="414" width="120" height="60" as="geometry" />
        </mxCell>
        <mxCell id="vgUfGtnhfAbGP5xbuHzQ-8" value="" style="edgeStyle=orthogonalEdgeStyle;rounded=0;orthogonalLoop=1;jettySize=auto;html=1;" parent="1" source="vgUfGtnhfAbGP5xbuHzQ-5" target="vgUfGtnhfAbGP5xbuHzQ-7" edge="1">
          <mxGeometry relative="1" as="geometry" />
        </mxCell>
        <mxCell id="vgUfGtnhfAbGP5xbuHzQ-5" value="m = (n1 + n2 + n3) /3" style="whiteSpace=wrap;html=1;fillColor=#dae8fc;strokeColor=#6c8ebf;" parent="1" vertex="1">
          <mxGeometry x="219" y="414" width="120" height="60" as="geometry" />
        </mxCell>
        <mxCell id="vgUfGtnhfAbGP5xbuHzQ-10" value="" style="edgeStyle=orthogonalEdgeStyle;rounded=0;orthogonalLoop=1;jettySize=auto;html=1;" parent="1" source="vgUfGtnhfAbGP5xbuHzQ-7" target="vgUfGtnhfAbGP5xbuHzQ-9" edge="1">
          <mxGeometry relative="1" as="geometry" />
        </mxCell>
        <mxCell id="vgUfGtnhfAbGP5xbuHzQ-11" value="Sim" style="edgeLabel;html=1;align=center;verticalAlign=middle;resizable=0;points=[];labelBackgroundColor=none;" parent="vgUfGtnhfAbGP5xbuHzQ-10" vertex="1" connectable="0">
          <mxGeometry x="-0.1" relative="1" as="geometry">
            <mxPoint y="-10" as="offset" />
          </mxGeometry>
        </mxCell>
        <mxCell id="vgUfGtnhfAbGP5xbuHzQ-13" value="" style="edgeStyle=orthogonalEdgeStyle;rounded=0;orthogonalLoop=1;jettySize=auto;html=1;" parent="1" source="vgUfGtnhfAbGP5xbuHzQ-7" target="vgUfGtnhfAbGP5xbuHzQ-12" edge="1">
          <mxGeometry relative="1" as="geometry" />
        </mxCell>
        <mxCell id="vgUfGtnhfAbGP5xbuHzQ-14" value="Não" style="edgeLabel;html=1;align=center;verticalAlign=middle;resizable=0;points=[];labelBackgroundColor=none;" parent="vgUfGtnhfAbGP5xbuHzQ-13" vertex="1" connectable="0">
          <mxGeometry x="-0.15" relative="1" as="geometry">
            <mxPoint x="11" as="offset" />
          </mxGeometry>
        </mxCell>
        <mxCell id="vgUfGtnhfAbGP5xbuHzQ-7" value="m &amp;lt; 3" style="rhombus;whiteSpace=wrap;html=1;fillColor=#dae8fc;strokeColor=#6c8ebf;" parent="1" vertex="1">
          <mxGeometry x="388" y="404" width="80" height="80" as="geometry" />
        </mxCell>
        <mxCell id="vgUfGtnhfAbGP5xbuHzQ-37" value="" style="edgeStyle=orthogonalEdgeStyle;rounded=0;orthogonalLoop=1;jettySize=auto;html=1;" parent="1" source="vgUfGtnhfAbGP5xbuHzQ-9" target="vgUfGtnhfAbGP5xbuHzQ-36" edge="1">
          <mxGeometry relative="1" as="geometry" />
        </mxCell>
        <mxCell id="vgUfGtnhfAbGP5xbuHzQ-9" value="&quot;Reprovado&quot;" style="shape=document;whiteSpace=wrap;html=1;boundedLbl=1;fillColor=#dae8fc;strokeColor=#6c8ebf;" parent="1" vertex="1">
          <mxGeometry x="528" y="404" width="120" height="80" as="geometry" />
        </mxCell>
        <mxCell id="vgUfGtnhfAbGP5xbuHzQ-16" value="" style="edgeStyle=orthogonalEdgeStyle;rounded=0;orthogonalLoop=1;jettySize=auto;html=1;" parent="1" source="vgUfGtnhfAbGP5xbuHzQ-12" target="vgUfGtnhfAbGP5xbuHzQ-15" edge="1">
          <mxGeometry relative="1" as="geometry" />
        </mxCell>
        <mxCell id="vgUfGtnhfAbGP5xbuHzQ-17" value="Sim" style="edgeLabel;html=1;align=center;verticalAlign=middle;resizable=0;points=[];labelBackgroundColor=none;" parent="vgUfGtnhfAbGP5xbuHzQ-16" vertex="1" connectable="0">
          <mxGeometry x="-0.2" y="-1" relative="1" as="geometry">
            <mxPoint x="-4" y="-11" as="offset" />
          </mxGeometry>
        </mxCell>
        <mxCell id="vgUfGtnhfAbGP5xbuHzQ-23" value="" style="edgeStyle=orthogonalEdgeStyle;rounded=0;orthogonalLoop=1;jettySize=auto;html=1;" parent="1" source="vgUfGtnhfAbGP5xbuHzQ-12" target="vgUfGtnhfAbGP5xbuHzQ-22" edge="1">
          <mxGeometry relative="1" as="geometry" />
        </mxCell>
        <mxCell id="vgUfGtnhfAbGP5xbuHzQ-48" value="Não" style="edgeLabel;html=1;align=center;verticalAlign=middle;resizable=0;points=[];labelBackgroundColor=none;" parent="vgUfGtnhfAbGP5xbuHzQ-23" vertex="1" connectable="0">
          <mxGeometry x="0.025" relative="1" as="geometry">
            <mxPoint x="11" as="offset" />
          </mxGeometry>
        </mxCell>
        <mxCell id="vgUfGtnhfAbGP5xbuHzQ-12" value="m &amp;lt; 7" style="rhombus;whiteSpace=wrap;html=1;fillColor=#dae8fc;strokeColor=#6c8ebf;" parent="1" vertex="1">
          <mxGeometry x="388" y="530" width="80" height="80" as="geometry" />
        </mxCell>
        <mxCell id="vgUfGtnhfAbGP5xbuHzQ-19" value="" style="edgeStyle=orthogonalEdgeStyle;rounded=0;orthogonalLoop=1;jettySize=auto;html=1;" parent="1" source="vgUfGtnhfAbGP5xbuHzQ-15" target="vgUfGtnhfAbGP5xbuHzQ-18" edge="1">
          <mxGeometry relative="1" as="geometry" />
        </mxCell>
        <mxCell id="vgUfGtnhfAbGP5xbuHzQ-15" value="&quot;Exame&quot;" style="shape=document;whiteSpace=wrap;html=1;boundedLbl=1;fillColor=#dae8fc;strokeColor=#6c8ebf;" parent="1" vertex="1">
          <mxGeometry x="528" y="530" width="120" height="80" as="geometry" />
        </mxCell>
        <mxCell id="vgUfGtnhfAbGP5xbuHzQ-21" value="" style="edgeStyle=orthogonalEdgeStyle;rounded=0;orthogonalLoop=1;jettySize=auto;html=1;" parent="1" source="vgUfGtnhfAbGP5xbuHzQ-18" target="vgUfGtnhfAbGP5xbuHzQ-20" edge="1">
          <mxGeometry relative="1" as="geometry" />
        </mxCell>
        <mxCell id="vgUfGtnhfAbGP5xbuHzQ-18" value="nf = 12 - m" style="whiteSpace=wrap;html=1;fillColor=#dae8fc;strokeColor=#6c8ebf;" parent="1" vertex="1">
          <mxGeometry x="528" y="625" width="120" height="55" as="geometry" />
        </mxCell>
        <mxCell id="vgUfGtnhfAbGP5xbuHzQ-20" value="&quot;Nota a ser tirada no exame = &quot;, nf" style="shape=document;whiteSpace=wrap;html=1;boundedLbl=1;fillColor=#dae8fc;strokeColor=#6c8ebf;" parent="1" vertex="1">
          <mxGeometry x="528" y="700" width="120" height="80" as="geometry" />
        </mxCell>
        <mxCell id="vgUfGtnhfAbGP5xbuHzQ-22" value="&quot;Aprovado&quot;" style="shape=document;whiteSpace=wrap;html=1;boundedLbl=1;fillColor=#dae8fc;strokeColor=#6c8ebf;" parent="1" vertex="1">
          <mxGeometry x="368" y="770" width="120" height="80" as="geometry" />
        </mxCell>
        <mxCell id="vgUfGtnhfAbGP5xbuHzQ-36" value="FIM" style="rounded=1;whiteSpace=wrap;html=1;fillColor=#dae8fc;strokeColor=#6c8ebf;" parent="1" vertex="1">
          <mxGeometry x="658" y="780" width="120" height="60" as="geometry" />
        </mxCell>
        <mxCell id="vgUfGtnhfAbGP5xbuHzQ-45" value="" style="endArrow=classic;html=1;rounded=0;exitX=1;exitY=0.5;exitDx=0;exitDy=0;entryX=0.25;entryY=0;entryDx=0;entryDy=0;" parent="1" source="vgUfGtnhfAbGP5xbuHzQ-20" target="vgUfGtnhfAbGP5xbuHzQ-36" edge="1">
          <mxGeometry width="50" height="50" relative="1" as="geometry">
            <mxPoint x="728" y="700" as="sourcePoint" />
            <mxPoint x="778" y="650" as="targetPoint" />
            <Array as="points">
              <mxPoint x="688" y="740" />
            </Array>
          </mxGeometry>
        </mxCell>
        <mxCell id="vgUfGtnhfAbGP5xbuHzQ-46" value="" style="endArrow=classic;html=1;rounded=0;exitX=1;exitY=0.5;exitDx=0;exitDy=0;entryX=0;entryY=0.5;entryDx=0;entryDy=0;" parent="1" source="vgUfGtnhfAbGP5xbuHzQ-22" target="vgUfGtnhfAbGP5xbuHzQ-36" edge="1">
          <mxGeometry width="50" height="50" relative="1" as="geometry">
            <mxPoint x="728" y="700" as="sourcePoint" />
            <mxPoint x="778" y="650" as="targetPoint" />
          </mxGeometry>
        </mxCell>
      </root>
    </mxGraphModel>
  </diagram>
</mxfile>
